<svg width="19" height="19" viewBox="0 0 19 19" fill="none" xmlns="http://www.w3.org/2000/svg">
<path d="M16.3712 7.22812C15.5837 3.76312 12.5612 2.20312 9.90625 2.20312C9.90625 2.20312 9.90625 2.20312 9.89875 2.20312C7.25125 2.20312 4.22125 3.75562 3.43375 7.22062C2.55625 11.0906 4.92625 14.3681 7.07125 16.4306C7.86625 17.1956 8.88625 17.5781 9.90625 17.5781C10.9262 17.5781 11.9462 17.1956 12.7337 16.4306C14.8787 14.3681 17.2487 11.0981 16.3712 7.22812ZM9.90625 10.9856C8.60125 10.9856 7.54375 9.92813 7.54375 8.62313C7.54375 7.31813 8.60125 6.26062 9.90625 6.26062C11.2112 6.26062 12.2687 7.31813 12.2687 8.62313C12.2687 9.92813 11.2112 10.9856 9.90625 10.9856Z" fill="#039443"/>
</svg>
