<svg width="20" height="20" viewBox="0 0 20 20" fill="none" xmlns="http://www.w3.org/2000/svg">
<path d="M16 4.5L16.0001 4.5C16.3829 4.49993 16.7513 4.64622 17.0297 4.90892C17.2305 5.0984 17.3737 5.33809 17.4462 5.60038L10 9.323L2.55384 5.60038C2.62634 5.33809 2.76945 5.0984 2.97029 4.90892C3.24874 4.64622 3.6171 4.49993 3.99991 4.5H4H16Z" fill="#6B7280" stroke="#6B7280"/>
<path d="M18 8.11719L10 12.1172L2 8.11719V13.9992C2 14.5296 2.21071 15.0383 2.58579 15.4134C2.96086 15.7885 3.46957 15.9992 4 15.9992H16C16.5304 15.9992 17.0391 15.7885 17.4142 15.4134C17.7893 15.0383 18 14.5296 18 13.9992V8.11719Z" fill="#6B7280"/>
</svg>
